<?xml version="1.0" encoding="UTF-8" standalone="no"?>
<svg
   version="1.0"
   width="150.000000pt"
   height="150.000000pt"
   viewBox="0 0 150.000000 150.000000"
   preserveAspectRatio="xMidYMid meet"
   id="svg2"
   sodipodi:docname="logo.svg"
   inkscape:version="1.4.3 (0d15f75, 2025-12-25)"
   xmlns:inkscape="http://www.inkscape.org/namespaces/inkscape"
   xmlns:sodipodi="http://sodipodi.sourceforge.net/DTD/sodipodi-0.dtd"
   xmlns="http://www.w3.org/2000/svg"
   xmlns:svg="http://www.w3.org/2000/svg">
  <defs
     id="defs2" />
  <sodipodi:namedview
     id="namedview2"
     pagecolor="#ffffff"
     bordercolor="#000000"
     borderopacity="0.25"
     inkscape:showpageshadow="2"
     inkscape:pageopacity="0.0"
     inkscape:pagecheckerboard="true"
     inkscape:deskcolor="#d1d1d1"
     inkscape:document-units="pt"
     inkscape:zoom="4.035"
     inkscape:cx="99.876084"
     inkscape:cy="100"
     inkscape:window-width="1920"
     inkscape:window-height="1009"
     inkscape:window-x="-8"
     inkscape:window-y="369"
     inkscape:window-maximized="1"
     inkscape:current-layer="svg2" />
  <g
     transform="translate(0.000000,150.000000) scale(0.100000,-0.100000)"
     fill="#000000"
     stroke="none"
     id="g2"
     style="fill:#00277a;fill-opacity:1">
    <path
       d="M70 750 l0 -390 105 0 105 0 0 128 0 127 81 -3 c119 -5 231 13 292 45 200 108 142 430 -84 473 -28 6 -152 10 -275 10 l-224 0 0 -390z m444 226 c45 -19 66 -52 66 -102 0 -85 -52 -114 -207 -114 l-93 0 0 115 0 115 100 0 c63 0 113 -5 134 -14z"
       id="path1"
       style="fill:#00277a;fill-opacity:1" />
    <path
       d="M696 1119 c10 -12 31 -34 45 -50 68 -73 87 -192 49 -306 l-22 -68 62 -155 c34 -85 64 -161 67 -167 4 -10 39 -13 128 -13 l123 0 -34 83 c-18 45 -81 204 -139 352 -58 149 -113 287 -122 308 l-16 37 -80 0 -80 0 19 -21z"
       id="path2"
       style="fill:#00277a;fill-opacity:1" />
  </g>
  <g
     transform="matrix(0.1,0,0,-0.1,1.11693,150.46299)"
     fill="#000000"
     stroke="none"
     id="g2-0"
     style="fill:#00bae0;fill-opacity:1">
    <path
       d="m 1420,1122 c 0,-7 -116,-348 -193,-567 -19,-55 -41,-116 -47,-135 -26,-72 -31,-67 -94,96 -46,120 -46,121 -30,159 8,21 45,129 81,239 36,111 67,204 70,209 6,9 213,9 213,-1 z"
       id="path1-9"
       sodipodi:nodetypes="sccccccs"
       style="fill:#00bae0;fill-opacity:1" />
  </g>
</svg>
