<svg width="150pt" height="150pt" version="1.0" viewBox="0 0 150 150" xmlns="http://www.w3.org/2000/svg">
 <g transform="translate(0 150) scale(.1 -.1)" fill="#00277a">
  <path d="m70 750v-390h105 105v128 127l81-3c119-5 231 13 292 45 200 108 142 430-84 473-28 6-152 10-275 10h-224v-390zm444 226c45-19 66-52 66-102 0-85-52-114-207-114h-93v115 115h100c63 0 113-5 134-14z"/>
  <path d="m696 1119c10-12 31-34 45-50 68-73 87-192 49-306l-22-68 62-155c34-85 64-161 67-167 4-10 39-13 128-13h123l-34 83c-18 45-81 204-139 352-58 149-113 287-122 308l-16 37h-80-80l19-21z"/>
 </g>
 <g transform="matrix(.1 0 0 -.1 1.1169 150.46)" fill="#00bae0">
  <path d="m1420 1122c0-7-116-348-193-567-19-55-41-116-47-135-26-72-31-67-94 96-46 120-46 121-30 159 8 21 45 129 81 239 36 111 67 204 70 209 6 9 213 9 213-1z"/>
 </g>
</svg>
